# xmcd CD database file
#
# Track frame offsets:
#	150
#	14529
#	40408
#	63084
#	85525
#
# Disc length: 1682 seconds
#
# Revision: 0
# Processed by: cddbd v1.5.2PL0 Copyright (c) Steve Scherf et al.
# Submitted via: CDex 1.70beta2
#
DISCID=32069005
DTITLE=BAD SIGN - DESTROY
DYEAR=2014
DGENRE=Rock-Metal
TTITLE0=CONFESSION
TTITLE1=THE RECIDIVIST
TTITLE2=FATHER
TTITLE3=FAITH
TTITLE4=DESTROY
EXTD=YEAR: 2014
EXTT0=
EXTT1=
EXTT2=
EXTT3=
EXTT4=
PLAYORDER=
